<svg xmlns="http://www.w3.org/2000/svg" viewBox="0 0 100 100" width="100" height="100">
  <style>
    .st0{fill:#8B4513;}
    .st1{fill:#6B8E23;}
    .st2{fill:#FF8C00;}
  </style>
  <g>
    <path class="st0" d="M50,10c-22.1,0-40,17.9-40,40c0,22.1,17.9,40,40,40c22.1,0,40-17.9,40-40C90,27.9,72.1,10,50,10z M50,85
      c-19.3,0-35-15.7-35-35s15.7-35,35-35s35,15.7,35,35S69.3,85,50,85z"/>
    <path class="st1" d="M36,35c0,0-10,5-10,15c0,8.3,6.7,15,15,15c8.3,0,15-6.7,15-15C56,40,36,35,36,35z"/>
    <path class="st2" d="M64,35c0,0,10,5,10,15c0,8.3-6.7,15-15,15c-8.3,0-15-6.7-15-15C44,40,64,35,64,35z"/>
    <circle class="st0" cx="50" cy="50" r="5"/>
  </g>
</svg>
